<svg version="1.1" id="Layer_1" xmlns="http://www.w3.org/2000/svg" xmlns:xlink="http://www.w3.org/1999/xlink" width="800" height="400" class="img-fluid"
	 viewBox="0 0 3000 3000" enable-background="new 0 0 3000 3000" xml:space="preserve">
<g class="login-emr-logo">
	<g>
		<path fill="#AE2229" d="M1844.1,1019.6c-186.3-133.1-478.9-123.3-620.8,164.6c-2,4.1-8.1,3.6-9.4-0.8
			c-16.2-53.2-95.6-250.1-383.5-255.3c-119-2.1-230.4,45.9-294.9,148.4c-65.3,103.9-71.7,224.9-33.2,340.2
			c20.4,61.1,50.1,117.5,86.2,169.7c7.6,11,15.5,21.9,23.7,32.5c50.9,66.4,111.9,125.7,176.3,179
			c258.5,213.9,340.4,277.8,407.5,545.8c0.4,1.6,2.7,1.5,3-0.1c6.9-39.3,52.3-221.8,312.3-386.7
			c302.2-191.7,398.9-353.9,451.4-451.4S2033,1154.6,1844.1,1019.6z M1779,1456c-24,100.5-207,278.9-287.9,337.4
			c-80,57.8-273.5,198.9-288.4,331c-0.1,0.6-0.9,0.6-0.9,0c-14.1-132.1-177.5-273.2-257.5-331c-66.9-48.3-133.5-109.7-189.1-174.5
			h177.6c7.5,0,14.1-4.7,16.5-11.8l4.9-14.2l10.7,45c2.2,9.3,10.5,16,20.1,15.8c0.2,0,0.3,0,0.5,0c10.3-0.3,20-5.2,26.7-13.1
			l20-23.3l22.8,57.4c4.5,11.3,15.9,18.7,28,17.5c0.5,0,1.1-0.1,1.6-0.2c10.9-1.6,19.7-9.9,22.4-20.7l45.2-179l36.8,145.4
			c3.2,12.7,16.5,20.4,28.9,16.3c0.2-0.1,0.3-0.1,0.5-0.2c6.3-2.1,11.3-7,13.8-13.1l26-64.5l32.5,82c13,14.5,29,5.2,29,5.2
			l57.9-39.2c4.3-2.9,9.4-4.5,14.6-4.5h199.5c5.2,5.8,13.1,9.2,21.8,8c11.1-1.5,20-10.5,21.2-21.7c1.7-14.9-10-27.6-24.6-27.6
			c-8.9,0-16.7,4.7-21.1,11.7h-217.5c-5.5,0-10.8,1.6-15.5,4.5l-28.9,18.4c-3.4,2.2-7.9,0.7-9.4-3l-32.5-80
			c-4-9.9-13.6-16.3-24.2-16.3h-7c-10.5,0-20.1,6.3-24.1,16.1l-14.8,35.4l-37.4-145.8c-4-15.5-20.5-24.5-35.4-18.8
			c-0.5,0.2-1,0.4-1.5,0.6c-7.6,3.3-13.1,10-15.2,18l-49.4,193l-10.9-24.9c-6-13.7-20.8-21.6-35.3-18.3c-0.4,0.1-0.9,0.2-1.3,0.3
			c-7.1,1.9-13.3,6.1-18.1,11.7l-12.4,14.7l-17.8-71.4c-1.6-6.3-5.9-11.6-11.9-14.3c-11.7-5.2-21.3-3.7-27.8-0.9
			c-5.9,2.5-10.2,7.7-11.9,13.8l-15.5,56.1c-1.2,4.2-5,7.1-9.3,7.1H728.4c-4.1-5.2-8.2-10.5-12.2-15.8
			c-61.1-81.3-84.9-189.8-59.2-288.7c29-111.5,120.4-178.7,230.7-199.9c254.9-49,329.9,195.9,329.9,195.9s75-244.9,329.9-195.9
			C1802.5,1131.1,1803,1355.5,1779,1456z"  id="red-color"/>
	</g>
	<polygon fill="#FFFFFF" points="1589.8,896.6 1589.8,455.7 1729.7,455.7 1729.7,615.7 1861.7,615.7 1861.7,455.7 1998.7,455.7 
		1998.7,896.6 1861.7,896.6 1861.7,722.7 1729.7,722.7 1729.7,896.6 	"/>
	<polygon fill="#FFFFFF" points="2055.7,1423.5 2085.7,1130.6 2521.6,1172.6 2493.6,1465.5 2384.1,1456.5 2399.8,1298 
		2344.3,1293.8 2331.6,1432.5 2228.1,1421.3 2242.4,1283.3 2178.6,1276.6 2166.6,1434.8 	"/>
	<path fill="#FFFFFF" d="M1974.7,1628.5l-94,109l36,60l-101,110l-62-26l-97,110l437.9,171l105-124L1974.7,1628.5z M1918.7,1952.4
		l51-62l67,114L1918.7,1952.4z"/>
	<polygon fill="#FFFFFF" points="1354.8,2386.3 1281.8,2310.3 1482.8,2123.9 1781.7,2446.3 1679.7,2544.3 1451.8,2293.3 	"/>
</g>
</svg>