<!-- ClosedEMR Logo Vectorized - Allows logo to match theme structure !-->

<svg width="855.721" height="163.794" class="img-fluid" viewBox="0 0 856 164" xmlns="http://www.w3.org/2000/svg">
  <g class="login-emr-logo">
    <path d="M 341.821 132.264 L 693.542 132.264 L 693.542 139.41 L 341.822 139.41 L 341.821 132.264 Z M 774.588 139.324 L 849.184 139.324 L 855.634 132.264 L 774.588 132.264 L 774.588 139.324 Z" id="red-color"/>
    <path d="M 69.12 135.668 C 88.838 143.879 112.592 140.064 128.67 124.351 C 149.844 103.657 149.844 70.097 128.67 49.404 C 126.44 47.229 96.464 76.076 93.894 74.292 C 97.682 76.74 118.253 67.505 121.461 70.647 C 147.664 96.255 158.182 118.984 131.979 144.591 C 112.327 163.796 83.544 168.581 59.327 159.011 C 57.708 158.355 56.228 157.413 54.96 156.231 C 49.931 151.315 2.055 163.856 7.084 158.94 C 10.798 155.3 64.275 133.669 69.12 135.668" id="blue-color" style=""/>
    <path d="M 28.127 50.697 C 19.914 69.967 23.73 93.182 39.444 108.897 C 60.136 129.588 93.697 129.588 114.389 108.897 C 116.565 106.717 87.364 84.51 89.148 81.998 C 86.7 85.7 84.946 105.804 81.804 108.939 C 56.196 134.546 44.811 137.736 19.203 112.129 C -0.003 92.924 -4.787 64.795 4.783 41.127 C 5.438 39.545 6.381 38.098 7.563 36.859 C 12.478 31.945 3.483 0.044 8.397 4.958 C 12.037 8.586 30.126 45.962 28.127 50.697" id="blue-color"/>
    <path d="M 138.943 48.58 C 130.648 29.59 110.43 16.215 86.85 16.215 C 55.868 16.215 30.714 39.37 30.714 67.886 C 30.714 70.914 85.841 71.175 86.39 74.078 C 85.479 69.84 60.974 61.725 60.973 57.404 C 60.973 22.073 61.284 0 99.667 0 C 128.456 0 153.131 16.089 163.687 39.054 C 164.373 40.567 168.542 82.669 168.542 84.374 C 168.542 91.187 158.82 56.216 151.418 56.216 C 145.729 56.277 140.931 53.06 138.942 48.58" id="blue-color" style=""/>
    <path d="m 729.47157,159.87708 c -0.0933,-0.16097 -8.10766,-25.61525 -17.80978,-56.56507 -9.70212,-30.949818 -17.78713,-56.425624 -17.96668,-56.6129 -0.19641,-0.204856 -0.32647,18.178799 -0.32647,46.146953 v 46.487457 h -4.6595 -4.65949 V 81.806636 24.279755 h 6.24824 c 5.64076,0 6.26638,0.06098 6.43466,0.62724 5.06633,17.047545 32.61717,107.520885 32.80034,107.711985 0.14482,0.15109 7.47102,-23.55859 16.28044,-52.688171 8.80943,-29.129586 16.20481,-53.567721 16.43418,-54.306968 l 0.41703,-1.344086 h 6.21227 6.21226 v 57.526881 57.526884 h -4.83737 -4.83736 l -0.091,-46.468009 -0.091,-46.468007 -17.70197,56.772666 c -9.73609,31.22497 -17.74414,56.82372 -17.79566,56.88612 -0.0515,0.0624 -0.16997,-0.0182 -0.26324,-0.17921 z" id="red-color"/>
    <path d="M 613.14972,69.233909 V 24.183147 h 30.45685 30.45685 v 4.822335 4.822335 H 648.68271 623.302 v 14.97462 14.974619 h 22.71574 22.71573 v 4.949239 4.949238 H 646.01774 623.302 V 89.157767 104.64 h 26.26904 26.26903 v 4.82234 4.82233 H 644.4949 613.14972 Z" id="blue-color"/>
    <path d="M 784.91472,69.264972 V 24.200546 l 20.62183,0.09855 c 19.77325,0.09449 20.73848,0.120832 23.45676,0.640072 14.09028,2.691495 22.37575,10.118227 24.98076,22.391642 0.45876,2.161427 0.56512,3.488942 0.56886,7.100112 0.005,4.628546 -0.31294,7.086833 -1.39422,10.786802 -2.3783,8.138203 -8.5224,14.551444 -16.99374,17.738165 -0.78359,0.294772 -1.44258,0.65016 -1.46442,0.789754 -0.0218,0.139594 4.44543,6.749419 9.92726,14.688502 5.48183,7.939085 10.17943,14.765495 10.43911,15.169815 l 0.47215,0.73511 -5.77084,-0.0683 -5.77084,-0.0683 -9.33346,-14.213202 -9.33345,-14.213198 -2.05567,0.0067 c -1.13062,0.0037 -7.93765,0.03223 -15.12674,0.06345 L 795.067,85.903 v 14.2132 14.2132 h -5.07614 -5.07614 z m 40.72667,6.355434 c 10.1783,-1.534081 16.29228,-6.347546 18.43718,-14.515394 0.74319,-2.830093 0.91298,-7.637228 0.37799,-10.701609 -1.55507,-8.907298 -7.57508,-14.114833 -18.42509,-15.938387 -1.93746,-0.325629 -5.21599,-0.428727 -16.68782,-0.524774 L 795.067,33.820713 v 21.091906 21.091906 l 14.02285,-0.0015 c 11.17372,-0.0013 14.53661,-0.07893 16.55154,-0.382622 z" id="blue-color"/>
    <text style="fill: rgb(51, 51, 51); font-family: Tahoma; font-size: 12.4px; white-space: pre;" transform="matrix(8.500353, 0, 0, 10.081564, -1820.988647, -530.779358)" x="238.014" y="64.067">CLOSED</text>
  </g>
</svg>