<!-- OpenEMR Logo Vectorized - Allows logo to match theme structure !-->

<svg width="287" height="287" viewBox="0 0 287 287" class="logo d-inline-block align-top" id="oemr_logo" alt="openEMR small logo" xmlns="http://www.w3.org/2000/svg">
  <g class="emr-menu-logo" transform="matrix(1.8257135,0,0,1.7522053,-3.3357514e-4,-3.0245411e-7)">
    <path d="M 67.702 135.668 C 86.972 143.879 110.187 140.064 125.9 124.351 C 146.593 103.657 146.593 70.097 125.9 49.404 C 123.72 47.229 93.554 74.636 91.044 72.852 C 94.745 75.3 119.788 69.536 122.923 72.678 C 148.531 98.286 154.741 118.984 129.133 144.591 C 109.928 163.796 81.799 168.581 58.132 159.011 C 56.55 158.355 55.103 157.413 53.864 156.231 C 48.949 151.315 -0.458 163.552 4.457 158.636 C 8.086 154.996 62.967 133.669 67.702 135.668" id="blue-color"/>
    <path d="M 28.127 50.697 C 19.914 69.967 23.73 93.182 39.444 108.897 C 60.136 129.588 93.697 129.588 114.389 108.897 C 116.565 106.717 85.482 83.682 87.266 81.171 C 84.818 84.873 92.396 107.306 89.254 110.441 C 63.646 136.048 44.811 137.736 19.203 112.129 C -0.003 92.924 -4.787 64.795 4.783 41.127 C 5.438 39.545 6.381 38.098 7.563 36.859 C 12.478 31.945 -2.452 -2.094 2.462 2.82 C 6.102 6.448 30.126 45.962 28.127 50.697" id="blue-color"/>
    <path d="M 132.82 49.792 C 124.994 30.328 105.92 16.619 83.674 16.619 C 54.445 16.619 30.714 40.352 30.714 69.579 C 30.714 72.683 82.404 71.005 82.922 73.98 C 82.063 69.635 58.14 63.53 58.139 59.101 C 58.139 22.889 59.554 0 95.766 0 C 122.926 0 146.205 16.49 156.164 40.028 C 156.811 41.579 155.309 85.175 155.309 86.923 C 155.309 93.906 151.572 57.618 144.589 57.618 C 139.222 57.681 134.695 54.384 132.819 49.792" id="blue-color"/>
  </g>
</svg>